<?xml version="1.0" encoding="UTF-8" standalone="no"?>
<svg
   width="80.484444"
   height="137.05716"
   version="1.1"
   id="svg154"
   sodipodi:docname="logo.svg"
   inkscape:version="1.2.2 (732a01da63, 2022-12-09)"
   xmlns:inkscape="http://www.inkscape.org/namespaces/inkscape"
   xmlns:sodipodi="http://sodipodi.sourceforge.net/DTD/sodipodi-0.dtd"
   xmlns="http://www.w3.org/2000/svg"
   xmlns:svg="http://www.w3.org/2000/svg">
  <defs
     id="defs158" />
  <sodipodi:namedview
     id="namedview156"
     pagecolor="#ffffff"
     bordercolor="#000000"
     borderopacity="0.25"
     inkscape:showpageshadow="2"
     inkscape:pageopacity="0.0"
     inkscape:pagecheckerboard="0"
     inkscape:deskcolor="#d1d1d1"
     showgrid="false"
     inkscape:zoom="2.1406553"
     inkscape:cx="83.152108"
     inkscape:cy="114.21736"
     inkscape:window-width="1920"
     inkscape:window-height="991"
     inkscape:window-x="-9"
     inkscape:window-y="-9"
     inkscape:window-maximized="1"
     inkscape:current-layer="svg154" />
  <path
     fill="#254441"
     d="m 41.826484,79.891183 -0.20105,0.008 c -9.45336,0.29803 -18.295406,-2.58007 -25.761278,-8.28992 C 8.015479,65.606376 2.766342,57.196841 0.78775802,47.476039 l -0.480735,-2.920393 c -0.554553,-3.904498 -0.322344,-8.007814 0.411371,-11.87002 C 4.129534,14.734087 20.292049,0.46692439 38.668314,0.02072339 c 1.448881,-0.0075 2.92596,-0.06176 4.37002,0.04284 12.25467,0.887432 23.33015,7.24805301 30.37388,17.32791961 3.87185,5.540701 6.83008,13.551102 7.0482,20.434601 0.20735,6.54408 -0.91623,13.428318 -3.79025,19.365549 -2.12882,4.397474 -6.33414,9.773475 -9.91443,12.889353 l -1.90329,1.512317 c -5.40196,4.13261 -11.64299,6.75997 -18.33768,7.81418 z m -2.06539,-69.198842 c -9.431468,0.09162 -18.464549,5.08593 -23.769339,12.841127 -2.523488,3.690091 -4.126308,7.893933 -5.063666,12.245034 l 0.01521,0.03671 c 1.358006,-0.357959 2.711555,-0.883573 4.047302,-1.324248 l 3.086206,-1.003759 c 2.563922,-0.855751 3.354387,-1.525293 5.311089,-3.377017 l 1.735619,-1.55757 c 4.664177,-4.065108 9.67666,-6.12196 15.810859,-6.077815 5.95727,0.169146 10.75535,2.526826 15.11164,6.375682 1.23745,1.093151 2.33951,2.476008 3.74091,3.355132 1.78904,1.12283 3.97979,1.672929 5.9695,2.344694 l 3.87,1.29124 c -0.10053,-1.218163 -0.47035,-2.458948 -0.8131,-3.630001 -2.53759,-8.668078 -8.67327,-15.709592 -16.99378,-19.175265 -3.67896,-1.532345 -7.91359,-2.583213 -11.938636,-2.360649 z m 0.208467,16.536783 c -8.73707,0.482958 -14.96586,7.33678 -14.493286,16.082014 0.15876,2.937084 1.315712,5.703909 2.851771,8.172505 1.582421,2.543516 2.080221,3.522797 3.010903,6.328936 l 3.052449,9.662937 c 0.148005,0.409145 0.298236,0.951823 0.579774,1.289008 l 0.582747,0.162105 -0.658415,-7.015552 c -0.08346,-0.940696 -0.251503,-2.001951 -0.132798,-2.938944 0.227753,-1.797935 2.003063,-1.7282 3.282063,-1.729307 h 2.876245 l 2.13549,6.18e-4 c 0.49929,6.18e-4 1.0991,-0.06862 1.56573,0.116479 l 0.079,0.03078 c 1.80017,0.709234 1.32463,2.697455 1.1744,4.183803 l -0.58609,5.328156 c -0.0638,0.668059 -0.1736,1.347621 -0.17471,2.019389 1.07943,-0.350538 0.94552,-0.622433 1.30422,-1.708173 l 3.65151,-11.538759 c 0.56049,-1.438502 1.41068,-2.724913 2.20374,-4.040632 1.2241,-2.030509 2.14291,-4.14523 2.62884,-6.476577 1.85543,-8.899913 -4.6586,-17.523849 -13.6839,-17.919638 -0.40544,-0.01743 -0.84611,-0.05156 -1.249693,-0.0096 z M 12.511252,49.478725 c 2.860667,7.094553 8.524895,14.103793 15.710706,17.168488 l 0.398018,0.146522 C 28.334351,65.465406 27.88774,64.139303 27.505677,62.833605 25.012967,54.318718 23.88866,52.222177 15.461323,50.160878 Z m 55.515692,0.126487 c -7.71441,1.596515 -11.28468,2.234902 -13.94578,10.237883 l -1.20889,3.965699 c -0.26151,0.942921 -0.54379,1.88214 -0.7226,2.845095 l 0.11797,0.02151 c 1.44814,-0.778968 2.91557,-1.530119 4.28767,-2.440401 5.35226,-3.549873 9.24154,-8.636917 11.58439,-14.586758 z"
     id="volante"
     style="fill:#ff0000;fill-opacity:1;stroke-width:0.370936" />
  <path
     fill="#254441"
     d="m 40.731844,49.015047 c -0.71369,0.01298 -1.402896,0.01001 -2.10248,-0.156906 -7.511869,-1.789399 -6.888688,-13.008045 1.429965,-13.567422 8.886565,-0.459967 10.087655,12.821098 0.672515,13.724328 z"
     id="centro"
     style="fill:#ff0000;fill-opacity:1;stroke-width:0.370936" />
  <path
     fill="#254441"
     d="M 12.942279,137.05716 V 90.689923 h 10.075043 c 3.434519,0 6.153492,0.52487 8.157303,1.57426 2.003434,1.04939 3.434512,2.62364 4.293229,4.72241 0.858722,2.09914 1.287901,4.713137 1.287901,7.842367 v 17.05869 c 0,3.28206 -0.429179,6.04889 -1.287901,8.30011 -0.858717,2.25159 -2.251587,3.95939 -4.178982,5.1234 -1.927024,1.164 -4.512457,1.746 -7.756312,1.746 z m 6.468788,-4.63673 h 3.663384 c 2.366212,0 4.045448,-0.4581 5.03734,-1.37395 0.992256,-0.91584 1.593548,-2.25159 1.803498,-4.00687 0.209579,-1.75565 0.314554,-3.87371 0.314554,-6.35417 v -15.05488 c 0,-2.40442 -0.152455,-4.35073 -0.457737,-5.838937 -0.305282,-1.4882 -0.973341,-2.57579 -2.003435,-3.26276 -1.03047,-0.68698 -2.652583,-1.03047 -4.865968,-1.03047 h -3.491636 z m 23.698857,4.63673 V 90.689923 h 6.46842 v 21.867157 l 10.6474,-21.867157 h 6.01031 l -9.15883,20.436077 10.6474,25.93116 h -6.29705 l -8.87245,-21.75254 -2.97678,5.38082 v 16.37172 z"
     id="letras"
     style="fill:#ff0000;fill-opacity:1;stroke-width:0.370936" />
</svg>
